<svg width="64" height="64" viewBox="0 0 64 64" fill="none" xmlns="http://www.w3.org/2000/svg">
  <path d="M28 31C34.1 31 39 26.1 39 20C39 13.9 34.1 9 28 9C21.9 9 17 13.9 17 20C17 26.1 21.9 31 28 31Z" stroke="currentColor" stroke-width="3"/>
  <path d="M10 53C11.8 42.7 18.6 36 28 36C37.4 36 44.2 42.7 46 53" stroke="currentColor" stroke-width="3" stroke-linecap="round"/>
  <path d="M45 18C48.3 18 51 20.7 51 24C51 27.3 48.3 30 45 30" stroke="currentColor" stroke-width="3" stroke-linecap="round"/>
  <path d="M48 37C52.6 39.2 55.4 43.5 56 50" stroke="currentColor" stroke-width="3" stroke-linecap="round"/>
  <path d="M17 53H39" stroke="currentColor" stroke-width="3" stroke-linecap="round"/>
</svg>
